<svg t="1581515817045" class="icon" viewBox="0 0 1024 1024" version="1.1" xmlns="http://www.w3.org/2000/svg" p-id="19608" width="32" height="32"><path d="M758.588653 362.265744c-11.69639-11.69639-30.753421-11.603269-42.561351 0.205685L462.542076 618.847493 308.758598 465.103924c-11.808954-11.809977-30.867008-11.901051-42.563398-0.204661l-1.057075 1.057075c-11.697413 11.697413-11.604292 30.752398 0.204661 42.562375l175.87359 175.831634c2.292206 2.291183 4.859681 4.137227 7.589862 5.54632 0.011256 0.00614 0.021489 0.011256 0.033769 0.017396 0.381693 0.195451 0.765433 0.38681 1.153266 0.565888 0.348947 0.162706 0.703011 0.316202 1.056052 0.462534 0.060375 0.024559 0.11768 0.052189 0.178055 0.076748 4.463662 1.838881 9.290597 2.549056 14.047947 2.134617 0.062422-0.005117 0.122797-0.008186 0.184195-0.014326 0.366344-0.033769 0.733711-0.078795 1.098008-0.125867 0.124843-0.017396 0.248663-0.028653 0.373507-0.047072 0.319272-0.045025 0.63752-0.102331 0.954745-0.156566 0.163729-0.027629 0.327458-0.054235 0.491187-0.084934 0.300852-0.058328 0.600681-0.125867 0.900509-0.192382 0.170892-0.037862 0.342808-0.072655 0.5137-0.11461 0.322341-0.077771 0.64366-0.166799 0.963954-0.255827 0.13917-0.038886 0.277316-0.072655 0.416486-0.113587 0.399089-0.116657 0.793062-0.24457 1.187035-0.3776 0.050142-0.017396 0.102331-0.030699 0.150426-0.050142 4.234441-1.458211 8.218172-3.875261 11.604292-7.262404l275.327696-278.469246c11.80793-11.808954 11.900028-30.867008 0.203638-42.563398L758.588653 362.265744z" p-id="19609"></path><path d="M893.715213 953.081811 129.732202 953.081811c-33.688263 0-61.096497-27.40721-61.096497-61.096497L68.635705 132.069945c0-33.688263 27.408233-61.096497 61.096497-61.096497l763.983012 0c33.689287 0 61.096497 27.408233 61.096497 61.096497l0 759.915369C954.81171 925.674601 927.4045 953.081811 893.715213 953.081811zM130.034077 891.683439l763.379261 0L893.413338 132.37182 130.034077 132.37182 130.034077 891.683439z" p-id="19610"></path></svg>
