<?xml version="1.0" standalone="no"?><!DOCTYPE svg PUBLIC "-//W3C//DTD SVG 1.1//EN" "http://www.w3.org/Graphics/SVG/1.1/DTD/svg11.dtd"><svg class="icon" width="144px" height="144.00px" viewBox="0 0 1024 1024" version="1.1" xmlns="http://www.w3.org/2000/svg"><path d="M488.192 262.336l190.4-188.352a33.92 33.92 0 0 1 47.616 0 33.088 33.088 0 0 1 0 47.104L535.808 309.44a33.92 33.92 0 0 1-47.616 0 33.088 33.088 0 0 1 0-47.104zM297.792 73.984a33.92 33.92 0 0 1 47.616 0l190.4 188.352a33.088 33.088 0 0 1 0 47.104 33.92 33.92 0 0 1-47.616 0L297.792 121.088a33.088 33.088 0 0 1 0-47.104z m0 828.928l190.4-188.352a33.92 33.92 0 0 1 47.616 0 33.088 33.088 0 0 1 0 47.104l-190.4 188.352a33.856 33.856 0 0 1-47.616 0 33.088 33.088 0 0 1 0-47.104z m190.4-188.352a33.92 33.92 0 0 1 47.616 0l190.4 188.352a33.088 33.088 0 0 1 0 47.104 33.856 33.856 0 0 1-47.616 0L488.192 761.6a33.024 33.024 0 0 1 0-47.04z"  /></svg>