<?xml version="1.0" standalone="no"?><!DOCTYPE svg PUBLIC "-//W3C//DTD SVG 1.1//EN" "http://www.w3.org/Graphics/SVG/1.1/DTD/svg11.dtd"><svg class="icon" width="32px" height="32.00px" viewBox="0 0 1024 1024" version="1.1" xmlns="http://www.w3.org/2000/svg"><path d="M313.128421 638.113684c-12.395789 15.629474-27.486316 26.947368-45.271579 33.953684-17.246316 7.545263-35.031579 10.778947-52.277895 10.778948-18.863158 0-34.492632-3.772632-47.966315-11.317895-12.934737-7.545263-23.713684-17.246316-31.258948-30.181053-7.545263-12.395789-12.934737-26.947368-15.090526-43.654736a162.546526 162.546526 0 0 1 14.551579-93.237895c6.467368-13.473684 14.551579-25.330526 23.713684-35.570526 9.701053-10.24 20.48-18.324211 33.414737-24.791579 12.395789-6.467368 26.408421-9.162105 42.037895-9.162106 16.707368 0 30.181053 3.233684 41.498947 9.701053 11.856842 8.084211 22.635789 18.324211 33.953684 32.336842h2.694737c12.934737-5.928421 22.096842-12.395789 28.564211-19.402105 6.467368-7.545263 10.24-14.012632 11.317894-21.018948 0.538947-3.772632 0.538947-8.084211-1.077894-12.395789-0.538947-3.772632-3.772632-7.545263-8.623158-9.701053-10.778947-6.467368-22.096842-10.24-33.953685-12.395789s-23.713684-3.772632-35.570526-3.772632c-24.791579 0-49.583158 4.850526-73.296842 13.473684-23.713684 9.162105-45.810526 21.557895-65.751579 37.726316-19.941053 16.707368-36.648421 35.570526-50.661053 57.128421-14.012632 21.557895-23.174737 44.732632-27.486315 70.063158-3.772632 21.018947-3.772632 40.96 0.538947 59.823158 3.772632 18.863158 11.317895 35.570526 22.096842 49.583158 10.778947 14.551579 24.252632 25.869474 40.96 34.492632 16.707368 8.623158 36.109474 12.934737 58.206316 12.934736 12.934737 0 26.947368-1.616842 40.421053-5.389473 14.012632-3.772632 27.486316-9.162105 40.421052-16.168421 12.934737-7.006316 25.330526-15.629474 37.187369-25.330527 11.856842-9.701053 21.557895-21.018947 30.181052-33.953684l-13.473684-14.551579z m356.244211 54.972632c-3.233684-2.694737-4.311579-7.006316-4.850527-12.39579 0-5.389474 0.538947-12.395789 2.15579-21.018947l26.408421-148.749474c3.772632-19.941053 4.311579-37.187368 1.616842-51.2s-7.006316-25.869474-14.012632-35.031579c-7.006316-9.162105-15.629474-15.629474-26.408421-19.941052-10.778947-4.311579-22.635789-6.467368-36.109473-6.467369-19.941053 0-42.037895 4.311579-65.751579 12.934737-23.713684 9.162105-46.888421 21.557895-69.524211 37.187369l4.850526-22.63579c2.155789-7.545263 4.311579-15.090526 7.006316-22.635789l-5.928421-4.850527c-5.389474 2.155789-12.934737 4.311579-22.096842 7.006316-9.162105 2.694737-18.863158 5.389474-29.103158 8.084211-10.24 2.694737-21.018947 5.389474-31.797895 8.08421-10.778947 2.694737-21.018947 4.850526-30.72 6.467369l-1.077894 15.629473c10.778947 1.616842 19.402105 3.772632 25.869473 5.389474s11.317895 4.311579 14.012632 8.08421c2.694737 3.233684 4.311579 8.084211 4.311579 14.012632 0 5.928421-0.538947 14.012632-2.694737 24.252632l-25.330526 142.282105c-2.694737 14.012632-4.850526 24.791579-7.545263 33.414737a41.822316 41.822316 0 0 1-31.258948 29.642105c-8.084211 2.155789-18.324211 3.772632-30.72 4.850526l-1.616842 16.707369c10.24 0 22.635789 0 36.648421-0.538948 14.012632-0.538947 28.564211-0.538947 42.576842-0.538947 17.785263 0 33.414737 0 48.505263 0.538947 14.551579 0.538947 27.486316 0.538947 39.343158 0.538948l5.389474-20.48c-11.856842-0.538947-21.557895-1.077895-28.564211-2.15579a30.396632 30.396632 0 0 1-15.090526-5.928421c-3.233684-2.694737-4.850526-7.006316-4.850526-12.395789s0.538947-12.395789 2.155789-21.018948l33.414737-185.936842c17.246316-10.24 34.492632-18.324211 51.2-24.252631 16.707368-5.928421 32.336842-8.623158 45.810526-8.623158 19.941053 0 35.031579 6.467368 45.810527 19.402105 10.778947 12.934737 13.473684 33.953684 8.08421 63.595789l-20.48 115.873685c-2.694737 14.012632-4.850526 24.791579-7.545263 32.875789-2.694737 8.084211-5.928421 14.012632-10.24 18.324211-4.311579 4.311579-10.24 7.006316-17.785263 9.162105-7.545263 1.616842-16.707368 3.233684-28.025263 4.311579l-1.077895 17.246316c10.24 0 22.096842 0 35.031579-0.538948 12.934737-0.538947 26.947368-0.538947 40.96-0.538947 17.785263 0 33.414737 0 47.427368 0.538947s26.947368 0.538947 38.804211 0.538948l4.850526-20.48c-11.856842-0.538947-21.018947-1.616842-27.486315-2.694737-7.006316-0.538947-11.856842-2.694737-14.551579-5.928421z m197.254736-246.837895h96.471579l7.006316-28.025263-3.772631-3.772632-94.31579 1.616842c1.077895-6.467368 2.694737-14.551579 4.311579-24.252631 2.155789-10.24 4.311579-21.018947 6.467368-32.336842 2.155789-11.317895 4.850526-23.174737 7.545264-34.492632 2.694737-11.317895 4.850526-21.557895 7.545263-30.72l-5.389474-3.233684c-2.694737 1.616842-5.928421 3.233684-10.778947 5.389474-4.311579 2.155789-9.701053 4.311579-15.629474 6.467368-5.928421 2.155789-11.856842 4.311579-18.32421 7.006316-6.467368 2.155789-12.395789 4.850526-18.324211 7.006316-1.616842 8.623158-3.233684 17.785263-4.311579 27.486315-1.616842 9.701053-3.233684 18.863158-4.850526 28.025264l-8.084211 45.810526-51.738947 3.772631-5.928421 21.557895 3.233684 3.772632h49.583158l-16.707369 95.393684c-4.311579 24.791579-8.084211 44.193684-10.778947 58.745263-2.694737 14.551579-4.850526 25.330526-5.928421 31.797895l-2.694737 15.090526c-2.694737 15.629474-3.233684 29.103158-1.077895 39.882105 2.155789 10.778947 5.928421 19.402105 11.856843 25.869474s12.934737 11.317895 21.557894 14.012632c8.623158 2.694737 17.785263 4.311579 28.564211 4.311579 15.629474 0 31.797895-2.694737 49.04421-7.545263 17.246316-4.850526 33.953684-10.778947 49.044211-17.785264l-0.538947-19.941052c-8.623158 1.616842-17.785263 3.772632-26.947369 5.389473-9.162105 1.616842-17.785263 2.694737-25.869474 2.694737-7.545263 0-14.551579-1.077895-21.018947-3.233684a28.995368 28.995368 0 0 1-15.090526-11.317895 48.559158 48.559158 0 0 1-7.545263-22.096842c-1.077895-9.162105-0.538947-21.018947 2.155789-35.031579l31.258947-177.313684z"   /></svg>
