<svg t="1584002873830" class="icon" viewBox="0 0 1024 1024" version="1.1" xmlns="http://www.w3.org/2000/svg" p-id="10556" width="32" height="32"><path d="M1004 789.6H20c-4 0-8.8-1.6-12-4.8-3.2-3.2-4.8-7.2-4-12C18.4 502.4 240.8 290.4 512 290.4s493.6 212 508 481.6c0 4-1.6 8.8-4 12-3.2 4-8 5.6-12 5.6z m-967.2-32h949.6C965.6 512.8 760 322.4 512 322.4S58.4 512.8 36.8 757.6z" p-id="10557"></path><path d="M149.6 674.4c-0.8 0-1.6 0-2.4-0.8-4-1.6-6.4-6.4-4.8-10.4 56-153.6 204.8-257.6 369.6-257.6 4.8 0 8 3.2 8 8s-3.2 8-8 8c-158.4 0-300.8 99.2-355.2 247.2-0.8 4-4 5.6-7.2 5.6zM512 322.4c-8.8 0-16-7.2-16-16v-53.6c0-8.8 7.2-16 16-16s16 7.2 16 16v53.6c0 9.6-7.2 16-16 16zM1004 878.4H20c-8.8 0-16-7.2-16-16s7.2-16 16-16h984c8.8 0 16 7.2 16 16s-7.2 16-16 16z" p-id="10558"></path><path d="M569.6 244.8H454.4c-8.8 0-16-7.2-16-16v-67.2c0-8.8 7.2-16 16-16h115.2c8.8 0 16 7.2 16 16v67.2c0 8.8-7.2 16-16 16z m-99.2-32h83.2v-35.2H470.4v35.2z" p-id="10559"></path><path d="M512 322.4c-8.8 0-16-7.2-16-16v-77.6c0-8.8 7.2-16 16-16s16 7.2 16 16v77.6c0 9.6-7.2 16-16 16z" p-id="10560"></path></svg>
