<?xml version="1.0" standalone="no"?><!DOCTYPE svg PUBLIC "-//W3C//DTD SVG 1.1//EN" "http://www.w3.org/Graphics/SVG/1.1/DTD/svg11.dtd"><svg class="icon" width="128px" height="128.00px" viewBox="0 0 1024 1024" version="1.1" xmlns="http://www.w3.org/2000/svg"><path d="M910.222222 853.333333V455.111111h56.888889v455.111111H113.777778V455.111111h56.888889v398.222222h739.555555z m56.888889 0l-56.888889 56.888889v-56.888889h56.888889zM170.666667 910.222222l-56.888889-56.888889h56.888889v56.888889z m739.555555-455.111111h56.888889v455.111111H113.777778V455.111111h56.888889v398.222222h739.555555V455.111111zM170.666667 910.222222l-56.888889-56.888889h56.888889v56.888889z m796.444444-56.888889l-56.888889 56.888889v-56.888889h56.888889z"  /><path d="M512 113.777778h56.888889v625.777778H512z"  /><path d="M545.166222 56.149333l249.400889 249.400889-40.220444 40.220445-249.400889-249.400889z"  /><path d="M294.513778 307.996444L543.857778 58.595556l40.220444 40.220444-249.400889 249.400889z"  /></svg>
