<?xml version="1.0" standalone="no"?><!DOCTYPE svg PUBLIC "-//W3C//DTD SVG 1.1//EN" "http://www.w3.org/Graphics/SVG/1.1/DTD/svg11.dtd"><svg class="icon" width="128px" height="128.00px" viewBox="0 0 1024 1024" version="1.1" xmlns="http://www.w3.org/2000/svg"><path d="M966.4 147.2V57.6h-83.2v192h83.2zM883.2 326.4h57.6v192h-57.6zM0 70.4v857.6c0 57.6 44.8 96 96 96h729.6v-57.6H96c-19.2 0-32-12.8-32-32s12.8-32 32-32h729.6V0H70.4C38.4 6.4 6.4 38.4 0 70.4z m268.8 147.2h416v70.4H268.8V217.6z m0 192h416v70.4H268.8V409.6z m0 198.4h416v70.4H268.8V608zM128 217.6h70.4v70.4H128V217.6z m0 192h70.4v70.4H128V409.6z m0 198.4h70.4v70.4H128V608zM883.2 601.6h121.6v198.4h-121.6z"  /></svg>
