<svg 
 xmlns="http://www.w3.org/2000/svg"
 xmlns:xlink="http://www.w3.org/1999/xlink"
 width="18px" height="16px">
<path fill-rule="evenodd"  fill="rgb(187, 187, 187)"
 d="M17.228,1.589 L0.771,1.589 C0.349,1.589 -0.000,1.229 -0.000,0.795 C-0.000,0.360 0.349,-0.000 0.771,-0.000 L17.228,-0.000 C17.650,-0.000 18.000,0.360 18.000,0.795 C18.000,1.229 17.650,1.589 17.228,1.589 L17.228,1.589 ZM17.228,8.794 L0.771,8.794 C0.349,8.794 -0.000,8.434 -0.000,8.000 C-0.000,7.565 0.349,7.205 0.771,7.205 L17.228,7.205 C17.650,7.205 18.000,7.565 18.000,8.000 C18.000,8.434 17.650,8.794 17.228,8.794 L17.228,8.794 ZM17.228,16.000 L0.771,16.000 C0.349,16.000 -0.000,15.640 -0.000,15.205 C-0.000,14.771 0.349,14.411 0.771,14.411 L17.228,14.411 C17.650,14.411 18.000,14.771 18.000,15.205 C18.000,15.640 17.650,16.000 17.228,16.000 L17.228,16.000 Z"/>
</svg>
