<svg xmlns="http://www.w3.org/2000/svg" width="32" height="32" viewBox="0 0 32 32">
  <defs>
  </defs>
  <path id="icon_03" class="cls-1" d="M116.82,323.02c-0.27-.01-0.54-0.02-0.82-0.02q-0.5,0-.96.03A16.019,16.019,0,0,0,100.5,335l-0.18.75c-0.05.27-.09,0.54-0.14,0.81A16.334,16.334,0,0,0,100,339c0,0.21,0,.42.02,0.62a16.345,16.345,0,0,0,.19,2,16.03,16.03,0,0,0,8.05,11.388c0.06,0.03.11,0.06,0.16,0.08A15.891,15.891,0,0,0,116,355h0.15c0.22,0,.44-0.01.66-0.02a16.009,16.009,0,0,0,14.47-11.219,15.472,15.472,0,0,0,.4-1.529A16.455,16.455,0,0,0,132,339,16.006,16.006,0,0,0,116.82,323.02ZM115,325h2v4h-2v-4Zm-9,15h-4v-2h4v2Zm11,13h-2a33.347,33.347,0,0,1,0-4h2v4Zm0-8-10-13c-0.62-1.81,1.22-1,1-1l15,7Zm13-5h-4v-2h4v2Z" transform="translate(-100 -323)"/>
</svg>
