<svg xmlns="http://www.w3.org/2000/svg" width="32" height="32" viewBox="0 0 32 32">
  <defs>
  </defs>
  <path id="icon_09" class="cls-1" d="M196,302s0.016,4.2,0,4a0.847,0.847,0,0,1-1,1H171a0.852,0.852,0,0,1-1-1h0V288l-0.447-.013a1.617,1.617,0,1,1-1.858-2.646h0L182.048,275.3a1.713,1.713,0,0,1,1.919,0l14.348,10.041a1.62,1.62,0,0,1,.41,2.254l0,0a1.629,1.629,0,0,1-2.261.39L196,288v12h-6v-3a0.526,0.526,0,0,0-.525.186l-5.334,3.314a0.249,0.249,0,0,0,0,.444l5.334,3.317A0.371,0.371,0,0,0,190,304v-2h6Zm-21.6-13.993a0.421,0.421,0,0,0-.411.329v1.328a0.47,0.47,0,0,0,.506.329h3.99a0.474,0.474,0,0,0,.506-0.33v-1.327a0.467,0.467,0,0,0-.5-0.329h-3.992A0.378,0.378,0,0,0,174.4,288.007Zm0,3.981a0.42,0.42,0,0,0-.411.333v1.345a0.466,0.466,0,0,0,.506.333h3.99a0.474,0.474,0,0,0,.506-0.333v-1.345a0.467,0.467,0,0,0-.5-0.333h-3.992A0.378,0.378,0,0,0,174.4,291.988Zm6.027,0a0.425,0.425,0,0,0-.413.333v1.345a0.466,0.466,0,0,0,.506.333h3.99a0.479,0.479,0,0,0,.508-0.333v-1.345a0.47,0.47,0,0,0-.506-0.333h-3.992A0.362,0.362,0,0,0,180.424,291.988ZM174.4,296a0.42,0.42,0,0,0-.411.333v1.345a0.468,0.468,0,0,0,.506.333h3.99a0.474,0.474,0,0,0,.506-0.335v-1.345a0.466,0.466,0,0,0-.5-0.331h-3.992A0.378,0.378,0,0,0,174.4,296Zm6.027,0a0.425,0.425,0,0,0-.413.333v1.345a0.468,0.468,0,0,0,.506.333h3.99a0.479,0.479,0,0,0,.508-0.335v-1.345a0.469,0.469,0,0,0-.506-0.331h-3.992A0.362,0.362,0,0,0,180.424,296Z" transform="translate(-167 -275)"/>
</svg>
