<svg xmlns="http://www.w3.org/2000/svg" width="26.062" height="31" viewBox="0 0 26.062 31">
  <defs>
  </defs>
  <path id="icon_05" class="cls-1" d="M298,298.29c-0.91.624-.487,0.7-3.457,1.529a39.243,39.243,0,0,1-19.086.006A6.493,6.493,0,0,1,272,298v5.385a1.057,1.057,0,0,0,.106.457C272.916,305.624,278.38,307,285,307s12.2-1.217,13-3a1.789,1.789,0,0,0,0-.615v-0.7h0v-4.4Zm0-8.29c-0.876.715-.49,1.171-3.457,2a45.81,45.81,0,0,1-19.086,0A6.246,6.246,0,0,1,272,290v4.856A7.262,7.262,0,0,0,272,296c1.242,1.72,6.374,3,13,3s12.09-1.2,12.894-2.988a6.34,6.34,0,0,0,.106-1.156h0V290Zm0-3.133V282c-0.622.59-.493,1.182-3.457,2.006a46.306,46.306,0,0,1-19.086,0A6.133,6.133,0,0,1,272,282v5.566a1.057,1.057,0,0,0,.106.457C272.916,289.805,278.38,291,285,291s12.09-1.195,12.894-2.977a1.057,1.057,0,0,0,.106-0.457v-0.7h0Zm-13-3.642c7.178-.006,13-1.624,13-3.615a1.173,1.173,0,0,0-.164-0.578,2.234,2.234,0,0,0-.517-0.578c-1.737-1.43-6.6-2.454-12.319-2.454s-10.582,1.029-12.319,2.454a2.234,2.234,0,0,0-.517.578,1.113,1.113,0,0,0-.164.578C272,281.607,277.822,283.225,285,283.225Z" transform="translate(-271.969 -276)"/>
</svg>
