<svg xmlns="http://www.w3.org/2000/svg" width="31.969" height="32" viewBox="0 0 31.969 32">
  <defs>
  </defs>
  <path id="icon_08" class="cls-1" d="M232.3,285.341L217.952,275.3a1.713,1.713,0,0,0-1.919,0l-14.352,10.041h0a1.727,1.727,0,0,0-.4,2.256c0.362,0.729.615,0.51,1.723,0.4h1v18h0a0.822,0.822,0,0,0,1,1h22.939A2.324,2.324,0,0,0,230,305v-3l-5,2c-0.758.354-1,.218-1,0v-2h-5v-2h5v-2c0.047-.437.523-0.194,1,0l5,2V288h1a2.355,2.355,0,0,0,1.709-.4v0A1.619,1.619,0,0,0,232.3,285.341Zm-19.289,12.32a0.476,0.476,0,0,1-.508.329h-4a0.47,0.47,0,0,1-.508-0.327v-1.321a0.419,0.419,0,0,1,.412-0.328,0.513,0.513,0,0,1,.1,0h4.006a0.468,0.468,0,0,1,.506.326v1.321Zm0-3.993a0.478,0.478,0,0,1-.508.332h-4a0.469,0.469,0,0,1-.508-0.332v-1.341a0.42,0.42,0,0,1,.412-0.333,0.513,0.513,0,0,1,.1,0h4.006a0.469,0.469,0,0,1,.506.333v1.341Zm0-3.988a0.477,0.477,0,0,1-.508.334h-4a0.472,0.472,0,0,1-.508-0.332v-1.343a0.421,0.421,0,0,1,.412-0.332,0.386,0.386,0,0,1,.1,0h4.006a0.469,0.469,0,0,1,.506.332v1.341Zm7,7.981a0.482,0.482,0,0,1-.51.329h-4a0.469,0.469,0,0,1-.507-0.327v-1.321a0.423,0.423,0,0,1,.414-0.328,0.482,0.482,0,0,1,.093,0h4a0.471,0.471,0,0,1,.508.326v1.321Zm0-3.993a0.484,0.484,0,0,1-.51.332h-4a0.468,0.468,0,0,1-.507-0.332v-1.341a0.425,0.425,0,0,1,.414-0.333,0.482,0.482,0,0,1,.093,0h4a0.472,0.472,0,0,1,.508.333v1.341Z" transform="translate(-201.031 -275)"/>
</svg>
