<svg xmlns="http://www.w3.org/2000/svg" width="31.969" height="32" viewBox="0 0 31.969 32">
  <defs>
  </defs>
  <path id="icon_00" class="cls-1" d="M266.71,287.6v0A2.355,2.355,0,0,1,265,288h-1v17a2.324,2.324,0,0,1-2.061,2H239a0.822,0.822,0,0,1-1-1V288h-1c-1.108.107-1.361,0.326-1.723-.4a1.727,1.727,0,0,1,.4-2.256h0L250.033,275.3a1.713,1.713,0,0,1,1.919,0L266.3,285.341A1.619,1.619,0,0,1,266.71,287.6ZM256,289.99h-2.386l-2.122,2.449-2.121-2.449h-2.387l2.652,2.939h-2.652L247,295h3v1h-3l-0.015,2.073L250,298v3h3v-3h3v-2h-3v-1h3v-2.071h-2.652Z" transform="translate(-235.031 -275)"/>
</svg>
