<svg xmlns="http://www.w3.org/2000/svg" width="31" height="30" viewBox="0 0 31 30">
  <defs>
  </defs>
  <path id="icon_03" class="cls-1" d="M111.572,282.123A2.347,2.347,0,0,1,112,283a19,19,0,0,0,1.04,4.637,22.465,22.465,0,0,0,2.683,4.712A5.131,5.131,0,0,0,118,294c-0.213-.068-0.087,0,0,0h8c3.195,0,5,4.98,5,8l0,2.792A1,1,0,0,1,130,306H115.339c-0.353,0-.34-0.668-0.339-1v-6a22.47,22.47,0,0,1-5-14c0-.663-0.065-1.337,0-2a1.041,1.041,0,0,1,.469-0.894L110,281h-2a1.034,1.034,0,0,1-1-.985l0-.015v-3a1.032,1.032,0,0,1,.781-1H114a1.253,1.253,0,0,1,1,1h0v3a1.251,1.251,0,0,1-1,1h-2l-0.428,1.121v0ZM117,288a5,5,0,1,1,5,5A5.166,5.166,0,0,1,117,288Zm-7.817,4.986a0.793,0.793,0,0,1,.711.446,18.76,18.76,0,0,0,1.745,3.818A5.673,5.673,0,0,1,113,300.944l-0.064.062H100.711a0.712,0.712,0,0,1-.712-0.7v-0.572a9.05,9.05,0,0,1,2.457-6.112,2.31,2.31,0,0,1,1.681-.637h5.045Zm-1.174-6.811a15.992,15.992,0,0,0,.984,5.154A3.312,3.312,0,0,1,107,292a2.946,2.946,0,0,1-3-3,3.023,3.023,0,0,1,3.085-3A2.525,2.525,0,0,1,108.009,286.175Z" transform="translate(-100 -276)"/>
</svg>
