<svg xmlns="http://www.w3.org/2000/svg" width="32" height="32" viewBox="0 0 32 32">
  <defs>
  </defs>
  <path id="icon_03" class="cls-1" d="M217.958,362.776A44.7,44.7,0,0,0,213,359.829c-1.247-.834-1.792.967-2,2.01s-0.454,3.014,1,3.014h5C218.454,364.853,219,363.4,217.958,362.776Zm8.933-.834c-0.208-1.043-.644-2.947-1.891-2.11a44.818,44.818,0,0,0-5,3.015c-1.039.626-.454,2.009,1,2.009h5c1.454,0,1.1-1.871.891-2.917v0ZM203,372.893h14v-6.03H203v6.03Zm32-6.03H221v6.03h14v-6.03Zm-31,25.122h13V375.907H204v16.078Zm17-16.078v16.078h13V375.907H221Z" transform="translate(-203 -360)"/>
</svg>
