<svg xmlns="http://www.w3.org/2000/svg" width="31" height="31" viewBox="0 0 31 31">
  <defs>
  </defs>
  <path id="icon_01" class="cls-1" d="M149.348,251.25c-0.3-.113-0.607-0.221-0.908-0.32-0.191-.063-1.783-0.92-0.644-2.9h-0.01a12.815,12.815,0,0,0,3.463-8.5c0-4.938-3.276-7.526-7.083-7.526s-7.068,2.588-7.068,7.526a12.783,12.783,0,0,0,3.468,8.523c0.768,2.023-.61,2.767-0.9,2.881-7.135,2.84-8.664,6.68-8.664,6.68V263h12.1l2.064-7.547,4.175-4.2h0Zm7.63,1.243-1.165-1.169,0.007-.007-1.56-1.561-7.092,7.045a0.63,0.63,0,0,0-.218.308L145.3,263l6.012-1.518a0.606,0.606,0,0,0,.29-0.2l7.11-7.063-1.729-1.732-0.007.007h0Zm-9.753,8.7s0.708-2.825.818-3.329a6.413,6.413,0,0,1,2.521,2.527Zm7.679-12.143,4.455,4.463,1.018-.958-4.454-4.464Zm6.644-.065-2.135-2.138a1.5,1.5,0,0,0-2.121-.012l-0.655.663,4.267,4.279,0.656-.665a1.507,1.507,0,0,0-.012-2.127h0Z" transform="translate(-131 -232)"/>
</svg>
