<svg xmlns="http://www.w3.org/2000/svg" width="32" height="29" viewBox="0 0 32 29">
  <defs>
  </defs>
  <path id="icon_07" class="cls-1" d="M159.338,291.139L145.918,278l-11.045.063a1.846,1.846,0,0,0-1.867,1.827v9.829l13.938,13.636a2.256,2.256,0,0,0,3.151,0l9.317-9.145A2.183,2.183,0,0,0,159.338,291.139ZM138.5,287.006a2.5,2.5,0,1,1,2.508-2.5A2.511,2.511,0,0,1,138.5,287.006Zm24.858,9.727-8.659,8.8a1.553,1.553,0,0,1-1.1.459H152.2a0.9,0.9,0,1,1,0-1.8h1.272l8.567-8.7a3.913,3.913,0,0,0-.055-5.544L150.563,278.8h-0.9a0.9,0.9,0,1,1,0-1.8h1.029a1.54,1.54,0,0,1,1.079.432l11.508,11.233A5.686,5.686,0,0,1,163.362,296.733Z" transform="translate(-133 -277)"/>
</svg>
