<svg xmlns="http://www.w3.org/2000/svg" width="30" height="32" viewBox="0 0 30 32">
  <defs>
  </defs>
  <path id="icon_02" class="cls-1" d="M126,235H116a3.875,3.875,0,0,0-4-4,3.947,3.947,0,0,0-4,4H98a0.952,0.952,0,0,0-1,1v25.914A1.062,1.062,0,0,0,98.053,263H125.94a1.062,1.062,0,0,0,1.052-1.081V236.285A1.212,1.212,0,0,0,126,235Zm-14-1.992a1.99,1.99,0,1,1-2.01,1.99A1.992,1.992,0,0,1,112,233.008ZM112,241l5,5h-4v4h-2v-4h-4Zm8,15H104v-2l2-5h4v2h4v-2h4l2,5v2Z" transform="translate(-97 -231)"/>
</svg>
