<svg xmlns="http://www.w3.org/2000/svg" width="26" height="32" viewBox="0 0 26 32">
  <defs>
  </defs>
  <path id="icon_06" class="cls-1" d="M86.348,294.25c-0.3-.113-0.608-0.221-0.909-0.32-0.191-.063-1.783-0.92-0.644-2.9h-0.01a12.814,12.814,0,0,0,3.463-8.5c0-4.938-3.276-7.526-7.082-7.526s-7.068,2.588-7.068,7.526a12.786,12.786,0,0,0,3.467,8.523c0.769,2.023-.61,2.767-0.9,2.881-7.135,2.84-8.664,6.68-8.664,6.68V307H80l3-10,3.348-2.75h0ZM83.78,303a1.034,1.034,0,0,1,0-2h5.447a1.034,1.034,0,0,1,0,2H83.78Zm1.984-4.015a1.04,1.04,0,0,1,0-2h7.467a1.04,1.04,0,0,1,0,2H85.764ZM85.78,307a1.035,1.035,0,0,1,0-2.006h5.447a1.035,1.035,0,0,1,0,2.006H85.78Z" transform="translate(-68 -275)"/>
</svg>
