<svg xmlns="http://www.w3.org/2000/svg" enable-background="new 0 0 24 24" height="24" viewBox="0 0 24 24" width="24"><path d="m0 0h24v24h-24z" fill="none"/><path d="m19 3h-15c-1.104 0-2 .896-2 2v15c0 1.105.896 2 2 2h15c1.104 0 2-.895 2-2v-15c0-1.104-.896-2-2-2z" fill="#fff"/><path d="m19 3h-15c-1.104 0-2 .892-2 1.992v3.008h19v-3.008c0-1.1-.896-1.992-2-1.992z" fill="#bcddff"/><path d="m19 3h-15c-1.104 0-2 .896-2 2v15c0 1.105.896 2 2 2h15c1.104 0 2-.895 2-2v-15c0-1.104-.896-2-2-2zm-15 1h15c .551 0 1 .449 1 1v3.002h-17v-3.002c0-.551.449-1 1-1zm15 17h-15c-.551 0-1-.447-1-1v-10.998h17v10.998c0 .553-.449 1-1 1z" fill="#819cce"/><path d="m20 14h-5v-5h-1v5h-5v-5h-1v5h-5v1h5v6h1v-6h5v6h1v-6h5z" fill="#6cf"/></svg>
