<svg xmlns="http://www.w3.org/2000/svg" enable-background="new 0 0 24 24" height="24" viewBox="0 0 24 24" width="24"><path d="m0 0h24v24h-24z" fill="none"/><path d="m19 3h-15c-1.104 0-2 .896-2 2v15c0 1.105.896 2 2 2h15c1.104 0 2-.895 2-2v-15c0-1.104-.896-2-2-2z" fill="#fff"/><path d="m19 4c .551 0 1 .449 1 1v15c0 .553-.449 1-1 1h-15c-.551 0-1-.447-1-1v-15c0-.551.449-1 1-1zm0-1h-15c-1.104 0-2 .896-2 2v15c0 1.105.896 2 2 2h15c1.104 0 2-.895 2-2v-15c0-1.104-.896-2-2-2z" fill="#819cce"/><g fill="#b3b3b3"><path d="m13 6h5v1h-5z"/><path d="m13 8h5v1h-5z"/><path d="m13 10h5v1h-5z"/><path d="m13 12h5v1h-5z"/><path d="m5 14h13v1h-13z"/><path d="m5 16h13v1h-13z"/><path d="m5 18h13v1h-13z"/></g><path d="m7.813 6h1.365l2.822 7h-1.375l-.688-1.854h-2.925l-.688 1.854h-1.324zm1.785 4.216-1.098-3.011h-.031l-1.107 3.011z" fill="#1B7AFF"/></svg>
