<svg t="1581153348988" class="icon" viewBox="0 0 1024 1024" version="1.1" xmlns="http://www.w3.org/2000/svg" p-id="5521" width="32" height="32"><path d="M200 896c-4 0-8-0.8-12-3.2-7.2-4-12-12-12-20.8V152c0-8.8 4.8-16.8 12-20.8s16.8-4 24 0l624 360c7.2 4 12 12 12 20.8s-4.8 16.8-12 20.8l-624 360c-4 2.4-8 3.2-12 3.2z m24-702.4v636.8L776 512 224 193.6z" fill="#999999" p-id="5522"></path><path d="M420 656c-79.2 0-144-64.8-144-144s64.8-144 144-144 144 64.8 144 144-64.8 144-144 144z m0-240c-52.8 0-96 43.2-96 96s43.2 96 96 96 96-43.2 96-96-43.2-96-96-96z" fill="#999999" p-id="5523"></path><path d="M697.6 837.6c-6.4 0-12-2.4-16.8-7.2L475.2 624.8c-9.6-9.6-9.6-24.8 0-33.6 9.6-9.6 24.8-9.6 33.6 0l205.6 205.6c9.6 9.6 9.6 24.8 0 33.6-4.8 4.8-10.4 7.2-16.8 7.2z" fill="#999999" p-id="5524"></path></svg>
