<svg xmlns="http://www.w3.org/2000/svg" enable-background="new 0 0 24 24" height="24" viewBox="0 0 24 24" width="24"><path d="m0 0h24v24h-24z" fill="none"/><path d="m12.5 21.5c-2.757 0-5-2.243-5-5s2.243-5 5-5 5 2.243 5 5-2.243 5-5 5z" fill="#fff"/><g fill="#819cce"><path d="m12.5 12c2.48 0 4.5 2.02 4.5 4.5s-2.02 4.5-4.5 4.5c-2.481 0-4.5-2.02-4.5-4.5s2.019-4.5 4.5-4.5m0-1c-3.038 0-5.5 2.463-5.5 5.5s2.462 5.5 5.5 5.5c3.037 0 5.5-2.463 5.5-5.5s-2.463-5.5-5.5-5.5z"/><path d="m3.938 13.993 5.061-8.233 3.04 4.131v-1.688l-3.04-4.203-6.999 11h4.212c.1-.352.232-.688.396-1.007z"/><path d="m13 5v4.5.525c.344.031.678.096 1 .188v-.338-3.875h7v7h-3.258c.253.307.47.644.652 1h3.606v-9z"/></g></svg>
