<svg xmlns="http://www.w3.org/2000/svg" enable-background="new 0 0 24 24" height="24" viewBox="0 0 24 24" width="24"><path d="m0 0h24v24h-24z" fill="none"/><path d="m19 3h-15c-1.104 0-2 .896-2 2v15c0 1.105.896 2 2 2h15c1.104 0 2-.895 2-2v-15c0-1.104-.896-2-2-2z" fill="#fff"/><path d="m19 4c .551 0 1 .449 1 1v15c0 .553-.449 1-1 1h-15c-.551 0-1-.447-1-1v-15c0-.551.449-1 1-1zm0-1h-15c-1.104 0-2 .896-2 2v15c0 1.105.896 2 2 2h15c1.104 0 2-.895 2-2v-15c0-1.104-.896-2-2-2z" fill="#819cce"/><path d="m10.061 12-6.061 8h4.116l4.384-5.246z" fill="#1B7AFF"/><circle cx="16" cy="8" fill="#f5c633" r="2"/><path d="m13.969 14 5.031 6h-10z" fill="#9cf"/></svg>
