<svg t="1581158453148" class="icon" viewBox="0 0 1024 1024" version="1.1" xmlns="http://www.w3.org/2000/svg" p-id="19087" width="32" height="32"><path d="M258.743462 563.549989H212.702977v46.040485h46.063065v-46.040485zM719.193473 195.180948H304.806527v46.063065h414.386946v-46.063065zM304.806527 609.590474h230.225006v-46.040485H304.806527v46.040485zM166.662492 885.855965a92.08097 92.08097 0 0 1-92.10355-92.080971V149.163043a92.10355 92.10355 0 0 1 92.10355-92.10355H719.170893a92.05839 92.05839 0 0 1 92.08097 92.10355v326.934862a314.990077 314.990077 0 0 1 46.085645 10.34161V103.099978A92.12613 92.12613 0 0 0 765.233958 10.996428H120.644587a92.12613 92.12613 0 0 0-92.103551 92.10355v736.715502a92.08097 92.08097 0 0 0 92.103551 92.05839h354.482381a321.922117 321.922117 0 0 1-17.20591-46.040485H166.662492z m552.530981-506.490496H304.806527v46.040485h414.386946v-46.040485zM212.702977 793.774994h46.063065v-46.063065H212.702977v46.063065z m552.553561-230.225005c-127.170187 0-230.225006 103.077398-230.225005 230.225005 0 127.170187 103.054818 230.225006 230.225005 230.225006 127.102448 0 230.202426-103.054818 230.202426-230.225006S892.358986 563.549989 765.256538 563.549989z m0 414.409526a184.16194 184.16194 0 0 1-184.16194-184.184521 184.16194 184.16194 0 1 1 368.34646 0 184.2071 184.2071 0 0 1-184.18452 184.184521z m-45.611466-276.55903v183.823242l183.710341-91.922911-183.710341-91.900331z m-414.838545 92.374509h184.18452v-46.063065h-184.18452v46.063065z m-46.063065-414.409525H212.702977v46.040485h46.063065v-46.040485z m0-184.184521H212.702977v46.063065h46.063065v-46.063065z"  p-id="19088"></path></svg>
