<svg t="1579836864106" class="icon" viewBox="0 0 1024 1024" version="1.1" xmlns="http://www.w3.org/2000/svg" p-id="2429" width="144" height="144"><path d="M538.947368 592.842105H485.052632v53.894737h53.894736v-53.894737z m0-215.578947H485.052632v53.894737h53.894736V377.263158z m0 107.789474H485.052632v53.894736h53.894736V485.052632z m0-215.578948H485.052632v53.894737h53.894736V269.473684z m0 431.157895H485.052632v53.894737h53.894736v-53.894737zM323.368421 485.052632H269.473684v53.894736h53.894737V485.052632z m107.789474 0H377.263158v53.894736h53.894737V485.052632zM323.368421 53.894737H269.473684v53.894737h53.894737V53.894737z m107.789474 0H377.263158v53.894737h53.894737V53.894737z m107.789473 754.526316H485.052632v53.894736h53.894736v-53.894736z m215.578948-754.526316h-53.894737v53.894737h53.894737V53.894737z m107.789473 431.157895h-53.894736v53.894736h53.894736V485.052632z m-323.368421-323.368421H485.052632v53.894736h53.894736V161.684211z m323.368421-107.789474h-53.894736v53.894737h53.894736V53.894737z m-107.789473 431.157895h-53.894737v53.894736h53.894737V485.052632z m-107.789474-431.157895h-53.894737v53.894737h53.894737V53.894737z m-107.789474 0H485.052632v53.894737h53.894736V53.894737z m107.789474 431.157895h-53.894737v53.894736h53.894737V485.052632z m269.473684 377.263157h53.894737v-53.894736h-53.894737v53.894736z m0-215.578947h53.894737v-53.894737h-53.894737v53.894737z m0-107.789474h53.894737V485.052632h-53.894737v53.894736zM107.789474 808.421053H53.894737v53.894736h53.894737v-53.894736z m808.421052-53.894737h53.894737v-53.894737h-53.894737v53.894737z m0-323.368421h53.894737V377.263158h-53.894737v53.894737z m0-377.263158v53.894737h53.894737V53.894737h-53.894737z m0 269.473684h53.894737V269.473684h-53.894737v53.894737z m0-107.789474h53.894737V161.684211h-53.894737v53.894736zM215.578947 53.894737H161.684211v53.894737h53.894736V53.894737zM107.789474 269.473684H53.894737v53.894737h53.894737V269.473684z m107.789473 215.578948H161.684211v53.894736h53.894736V485.052632zM107.789474 377.263158H53.894737v53.894737h53.894737V377.263158z m0-323.368421H53.894737v53.894737h53.894737V53.894737z m0 107.789474H53.894737v53.894736h53.894737V161.684211z m0 323.368421H53.894737v53.894736h53.894737V485.052632z m0 215.578947H53.894737v53.894737h53.894737v-53.894737z m0-107.789474H53.894737v53.894737h53.894737v-53.894737z m-53.894737 377.263158h916.210526v-53.894737H53.894737v53.894737z" fill="#444A5C" p-id="2430"></path></svg>
