<svg t="1579835841380" class="icon" viewBox="0 0 1024 1024" version="1.1" xmlns="http://www.w3.org/2000/svg" p-id="1756" width="144" height="144"><path d="M592.842105 485.052632H431.157895V107.789474h161.68421v377.263158m53.894737 53.894736V53.894737H377.263158v485.052631h269.473684zM754.526316 916.210526V269.473684h161.68421v700.631579h53.894737V215.578947h-269.473684v754.526316h53.894737zM323.368421 215.578947H53.894737v754.526316h53.894737V269.473684h161.68421v700.631579h53.894737zM377.263158 700.631579v2.694737l2.694737-2.694737zM377.263158 970.105263h2.694737L377.263158 967.410526zM646.736842 970.105263v-2.694737l-2.694737 2.694737zM646.736842 700.631579h-2.694737l2.694737 2.694737z" fill="#444A5C" p-id="1757"></path><path d="M512 873.633684L608.471579 970.105263h35.570526l2.694737-2.694737v-35.570526l-96.471579-96.471579L646.736842 738.896842v-35.570526l-2.694737-2.694737h-35.570526L512 797.103158 415.528421 700.631579h-35.570526l-2.694737 2.694737v35.570526l96.471579 96.471579L377.263158 931.84v35.570526l2.694737 2.694737h35.570526z" fill="#444A5C" p-id="1758"></path></svg>
