<svg t="1582511681904" class="icon" viewBox="0 0 1024 1024" version="1.1" xmlns="http://www.w3.org/2000/svg" p-id="2506" width="32" height="32"><path d="M168.6 169v686h686.1V169H168.6z m640.1 46v146.7H214.6V215h594.1zM214.6 809V407.7h594.1V809H214.6z" p-id="2507"></path><path d="M255.6 267.2h64v46h-64zM383.6 267.2h64v46h-64zM511.7 267.2h64v46h-64zM417.4 532.9l-53-3.1L292 640.3 365.3 750h55.4l-73.5-109.9zM606.4 532.9l70.1 107.2-72.3 108.2 54.2 1.7 73.3-109.7-72.4-110.5zM445.4 774.9h48.2l83.7-268-47.6-1.8z" p-id="2508"></path></svg>
