<?xml version="1.0" standalone="no"?><!DOCTYPE svg PUBLIC "-//W3C//DTD SVG 1.1//EN" "http://www.w3.org/Graphics/SVG/1.1/DTD/svg11.dtd"><svg class="icon" width="128px" height="128.00px" viewBox="0 0 1024 1024" version="1.1" xmlns="http://www.w3.org/2000/svg"><path d="M512 19.2L0 409.6l25.6 70.4 70.4-51.2v416c0 83.2 70.4 70.4 70.4 70.4h659.2c76.8 0 70.4-70.4 70.4-70.4v-384l76.8 51.2 51.2-51.2L512 19.2zM262.4 486.4s32-172.8 243.2-172.8c0 0 89.6-6.4 198.4 96l-70.4 51.2S595.2 384 512 384c-76.8 0-147.2 51.2-147.2 102.4h96L313.6 633.6 192 486.4h70.4z m467.2 140.8s-32 166.4-243.2 166.4c0 0-89.6 6.4-198.4-96l70.4-44.8s32 70.4 121.6 70.4c70.4 0 140.8-51.2 147.2-96H531.2l147.2-140.8 121.6 140.8h-70.4z" /></svg>
