<?xml version="1.0" encoding="iso-8859-1"?>
<!-- Generator: Adobe Illustrator 22.0.0, SVG Export Plug-In . SVG Version: 6.00 Build 0)  -->
<svg version="1.1" id="&#x56FE;&#x5C42;_1" xmlns="http://www.w3.org/2000/svg" xmlns:xlink="http://www.w3.org/1999/xlink" x="0px"
	 y="0px" viewBox="0 0 145.382 146.75" style="enable-background:new 0 0 145.382 146.75;" xml:space="preserve">
<g id="&#x80CC;&#x666F;_xA0_&#x56FE;&#x50CF;_1_">
</g>
<g>
	<g>
		<path style="fill:#666666;" d="M72.69,3.275c-31.44-0.009-56.939,25.07-56.956,56.028c0,30.949,44.636,78.301,44.636,78.301
			c6.808,7.816,17.946,7.851,24.675-0.035c0,0,44.601-47.317,44.601-78.266c-0.025-14.915-6.039-29.195-16.692-39.633
			C102.202,9.136,87.742,3.247,72.69,3.275L72.69,3.275z M72.69,83.426c-10.595,0.043-20.185-6.264-24.342-16.009
			c-4.073-9.704-1.804-20.911,5.722-28.268c7.596-7.429,18.881-9.633,28.714-5.608c9.788,3.943,16.212,13.423,16.246,23.975
			C99.021,71.833,87.236,83.426,72.69,83.426L72.69,83.426z M72.69,83.426"/>
	</g>
</g>
</svg>
