<?xml version="1.0" standalone="no"?><!DOCTYPE svg PUBLIC "-//W3C//DTD SVG 1.1//EN" "http://www.w3.org/Graphics/SVG/1.1/DTD/svg11.dtd"><svg class="icon" width="128px" height="127.25px" viewBox="0 0 1030 1024" version="1.1" xmlns="http://www.w3.org/2000/svg"><path d="M524.8 281.6V172.8h326.4v108.8H524.8zM524.8 441.6V332.8h326.4v108.8H524.8zM524.8 691.2V582.4h326.4v108.8H524.8zM524.8 851.2v-108.8h326.4v108.8H524.8zM435.2 441.6H172.8V179.2h262.4zM435.2 851.2H172.8V588.8h262.4z"   /><path d="M940.8 857.6c0 44.8-38.4 83.2-83.2 83.2H166.4c-44.8 0-83.2-38.4-83.2-83.2V524.8H0v332.8C0 947.2 76.8 1024 166.4 1024h697.6c89.6 0 166.4-76.8 166.4-166.4V524.8h-83.2v332.8h-6.4zM857.6 0H166.4C76.8 0 0 76.8 0 166.4v332.8h83.2V166.4c0-44.8 38.4-83.2 83.2-83.2h697.6c44.8 0 83.2 38.4 83.2 83.2v332.8H1024V166.4C1024 76.8 947.2 0 857.6 0z"  /></svg>
