<?xml version="1.0" standalone="no"?><!DOCTYPE svg PUBLIC "-//W3C//DTD SVG 1.1//EN" "http://www.w3.org/Graphics/SVG/1.1/DTD/svg11.dtd"><svg class="icon" width="128px" height="128.00px" viewBox="0 0 1024 1024" version="1.1" xmlns="http://www.w3.org/2000/svg"><path d="M926.647887 126.197183h-288.450704c0-72.112676-57.690141-126.197183-126.197183-126.197183s-126.197183 57.690141-126.197183 126.197183h-288.450704c-18.028169 0-32.450704 14.422535-32.450705 32.450704v829.295775c0 18.028169 14.422535 32.450704 32.450705 32.450704h829.295774c18.028169 0 32.450704-14.422535 32.450705-32.450704v-829.295775c0-18.028169-14.422535-32.450704-32.450705-32.450704zM512 64.901408c36.056338 0 64.901408 28.84507 64.901408 64.901409s-28.84507 64.901408-64.901408 64.901408-64.901408-28.84507-64.901408-64.901408 28.84507-64.901408 64.901408-64.901409z m382.197183 894.197184H126.197183V191.098592H252.394366V288.450704c0 18.028169 14.422535 32.450704 32.450704 32.450704h447.098592c18.028169 0 32.450704-14.422535 32.450704-32.450704V191.098592h126.197183v768z"  /><path d="M786.028169 800.450704v32.450704H234.366197v-32.450704l68.507042-140.619718h137.014085v72.112676H576.901408v-72.112676h140.619719z"  /><path d="M353.352113 558.873239l155.042253-155.042253 155.042254 155.042253h-118.985916v137.014085h-68.507042v-137.014085z"  /></svg>