<?xml version="1.0" standalone="no"?><!DOCTYPE svg PUBLIC "-//W3C//DTD SVG 1.1//EN" "http://www.w3.org/Graphics/SVG/1.1/DTD/svg11.dtd"><svg class="icon" width="128px" height="128.00px" viewBox="0 0 1024 1024" version="1.1" xmlns="http://www.w3.org/2000/svg"><path d="M1018.833242 337.488511c-6.367708 63.677078-25.470831 108.251032-44.573954 133.721863-12.735416 19.103123-50.941662 57.30937-70.044786 82.780201l-229.237479-241.972895-120.986448 108.251032c-57.30937 50.941662-120.986447 50.941662-120.986447 50.941662h-6.367708c-57.30937 0-108.251032-38.206247-133.721863-63.677077 50.941662-50.941662 241.972895-248.340603 312.01768-312.017681 25.470831-25.470831 82.780201-50.941662 146.457279-50.941662 70.044785 0 133.721863 31.838539 184.663525 89.147909C1012.465534 210.134356 1018.833242 286.546849 1018.833242 337.488511M235.605187 413.901005l12.735416 12.735415C254.70831 426.63642 331.120804 509.416621 426.63642 509.416621h12.735416c6.367708 0 82.780201-6.367708 140.08957-63.677078l89.147909-82.780201 127.354155 133.721863 114.61874 120.986448c19.103123 19.103123 12.735416 50.941662 0 70.044785-19.103123 19.103123-50.941662 25.470831-70.044785 6.367708l-152.824987-146.457278-12.735415 12.735415-12.735416 12.735416 146.457279 146.457278c19.103123 19.103123 12.735416 44.573954-6.367708 70.044785-12.735416 12.735416-25.470831 19.103123-38.206247 19.103124-12.735416 0-25.470831 0-31.838538-12.735416l-152.824987-152.824986-25.470831 25.470831 152.824987 152.824986c6.367708 6.367708 12.735416 19.103123 12.735415 31.838539s-6.367708 25.470831-19.103123 38.206247c-12.735416 12.735416-25.470831 19.103123-38.206247 19.103123-12.735416 0-25.470831 0-31.838539-12.735416l-19.103123-19.103123c31.838539-31.838539 31.838539-82.780201 0-114.61874-12.735416-12.735416-38.206247-25.470831-57.30937-25.470831h-12.735415c0-25.470831-6.367708-50.941662-25.470831-63.677077-12.735416-12.735416-38.206247-25.470831-57.30937-25.470831H445.739543v-6.367708c0-19.103123-6.367708-44.573954-25.470831-57.30937S388.430173 573.093699 369.32705 573.093699h-19.103123v-12.735416c0-19.103123-6.367708-44.573954-25.470831-57.30937-12.735416-12.735416-31.838539-19.103123-57.30937-19.103123-19.103123 0-38.206247 6.367708-57.30937 25.470831L140.089571 579.461406l6.367708-6.367707C120.986447 553.990575 70.044785 503.048913 50.941662 471.210374v-6.367707c-76.412493-120.986447-63.677078-235.605187 31.838539-331.120804C152.824986 63.677078 229.237479 57.30937 280.179142 57.30937c70.044785 6.367708 127.354155 31.838539 152.824986 57.30937l50.941662 50.941662C382.062466 261.076018 254.70831 394.797881 248.340603 401.165589l-12.735416 12.735416m0 120.986447c12.735416-12.735416 19.103123-12.735416 31.838539-12.735416s25.470831 6.367708 31.838539 12.735416c6.367708 6.367708 12.735416 19.103123 12.735415 31.838539s-6.367708 25.470831-12.735415 31.838539l-114.61874 114.618739c-6.367708 6.367708-19.103123 12.735416-31.838539 12.735416s-25.470831-6.367708-31.838539-12.735416c-6.367708-6.367708-12.735416-19.103123-12.735415-31.838538s6.367708-25.470831 12.735415-31.838539l114.61874-114.61874m76.412493 31.838539z m25.470831 57.30937c6.367708-6.367708 19.103123-12.735416 31.838539-12.735416s25.470831 6.367708 31.838539 12.735416c6.367708 6.367708 12.735416 19.103123 12.735416 31.838538s-6.367708 25.470831-12.735416 31.838539l-114.61874 114.61874c-6.367708 6.367708-19.103123 12.735416-31.838539 12.735416s-25.470831-6.367708-31.838538-12.735416c-6.367708-6.367708-12.735416-19.103123-12.735416-31.838539s6.367708-25.470831 12.735416-31.838539l114.618739-114.618739m95.515617 89.147908c6.367708-6.367708 19.103123-12.735416 31.838539-12.735415s25.470831 6.367708 31.838538 12.735415c19.103123 19.103123 19.103123 44.573954 0 63.677078L382.062466 891.479087c-6.367708 6.367708-19.103123 12.735416-31.838539 12.735415s-25.470831-6.367708-31.838539-12.735415c-6.367708-6.367708-12.735416-19.103123-12.735415-31.838539s6.367708-25.470831 12.735415-31.838539l114.61874-114.61874m95.515616 89.147909c6.367708-6.367708 19.103123-12.735416 31.838539-12.735416s25.470831 6.367708 31.838539 12.735416c19.103123 19.103123 19.103123 44.573954 0 63.677078l-114.61874 114.618739c-6.367708 6.367708-19.103123 12.735416-31.838539 12.735416s-25.470831-6.367708-31.838538-12.735416c-6.367708-6.367708-12.735416-19.103123-12.735416-31.838538s6.367708-25.470831 12.735416-31.838539l114.618739-114.61874m76.412493 133.721863c19.103123 19.103123 12.735416 44.573954-6.367707 70.044785-19.103123 19.103123-50.941662 25.470831-70.044786 6.367708l-19.103123-19.103123 70.044785-70.044786 25.470831 12.735416"  /></svg>
