<?xml version="1.0" encoding="iso-8859-1"?>
<!-- Generator: Adobe Illustrator 22.0.0, SVG Export Plug-In . SVG Version: 6.00 Build 0)  -->
<svg version="1.1" id="&#x56FE;&#x5C42;_1" xmlns="http://www.w3.org/2000/svg" xmlns:xlink="http://www.w3.org/1999/xlink" x="0px"
	 y="0px" viewBox="0 0 145.382 146.75" style="enable-background:new 0 0 145.382 146.75;" xml:space="preserve">
<g id="&#x80CC;&#x666F;_xA0_&#x56FE;&#x50CF;_1_">
</g>
<g id="s_&#x62F7;&#x8D1D;_1_" style="enable-background:new    ;">
	<g id="s_&#x62F7;&#x8D1D;">
		<g>
			<path style="fill:#3874FB;" d="M7.8,80.908h41.49c3.612,0,6.541-3.347,6.541-7.439c0.021-4.122-2.928-7.439-6.521-7.439H7.8
				c-3.612,0-6.541,3.316-6.541,7.439C1.259,77.581,4.208,80.908,7.8,80.908z M7.8,28.805h64.297c3.612,0,6.541-3.316,6.541-7.439
				s-2.928-7.439-6.521-7.439H7.81c-3.612,0-6.541,3.316-6.541,7.439S4.208,28.805,7.8,28.805z M70.045,119.745H7.8
				c-3.612,0-6.541,3.347-6.541,7.439c0,4.082,2.949,7.439,6.541,7.439h62.246c3.612,0,6.541-3.347,6.541-7.439
				C76.587,123.092,73.658,119.745,70.045,119.745z M142.24,53.438l-32.755-37.133c0-0.041-0.031-0.041-0.031-0.041l-0.031-0.041
				c-1.245-1.378-2.898-2.153-4.633-2.153c-1.776,0.02-3.459,0.816-4.684,2.245L67.515,53.755
				c-2.541,2.929-2.541,7.674,0.051,10.572c2.551,2.908,6.694,2.888,9.245-0.061l21.521-24.827v89.45c0,4.123,2.908,7.48,6.541,7.48
				c3.623,0,6.541-3.347,6.541-7.48V39.847l21.368,24.194c2.572,2.908,6.847,2.908,9.398-0.041
				C144.761,61.092,144.761,56.347,142.24,53.438z"/>
		</g>
	</g>
</g>
</svg>
