<svg t="1576994007529" class="icon" viewBox="0 0 1024 1024" version="1.1" xmlns="http://www.w3.org/2000/svg" p-id="2250" width="128" height="128"><path d="M448 563.2c-32-32-19.2-83.2-19.2-83.2 38.4-32 44.8-70.4 44.8-70.4 25.6 12.8 70.4-44.8 64-83.2s-44.8-25.6-44.8-25.6c12.8-64 12.8-153.6-44.8-192-70.4-44.8-134.4-25.6-179.2 0-44.8 19.2-32 57.6-32 57.6s-19.2 6.4-25.6 32c-6.4 19.2-6.4 70.4 0 102.4 0 0-32-12.8-38.4 19.2s38.4 96 64 83.2c0 0 6.4 38.4 44.8 70.4 0 0 12.8 57.6-25.6 83.2-32 25.6-185.6 57.6-217.6 102.4-25.6 32-32 89.6-32 128 0 12.8 12.8 25.6 25.6 25.6h659.2c12.8 0 25.6-12.8 25.6-25.6 0-32-6.4-96-32-128-51.2-38.4-198.4-70.4-236.8-96z" ></path><path d="M992 678.4c-32-38.4-166.4-64-192-89.6-32-25.6-19.2-76.8-19.2-76.8 32-25.6 38.4-64 38.4-64 19.2 12.8 64-38.4 51.2-70.4s-38.4-19.2-38.4-19.2c6.4-57.6 12.8-140.8-44.8-166.4-64-38.4-121.6-19.2-153.6 0s-19.2 51.2-19.2 51.2-19.2 6.4-25.6 32c-6.4 19.2-6.4 57.6 0 89.6 0 0-25.6-12.8-38.4 19.2-6.4 32 38.4 83.2 57.6 70.4 0 0 6.4 32 38.4 64 0 0 6.4 51.2-19.2 76.8 0 0-6.4 6.4-12.8 6.4 32 12.8 57.6 25.6 76.8 44.8 25.6 32 38.4 96 38.4 140.8 0 6.4 0 19.2-6.4 25.6h275.2c12.8 0 19.2-12.8 19.2-19.2 6.4-32 0-89.6-25.6-115.2z" ></path></svg>
