<?xml version="1.0" encoding="iso-8859-1"?>
<!-- Generator: Adobe Illustrator 22.0.0, SVG Export Plug-In . SVG Version: 6.00 Build 0)  -->
<svg version="1.1" id="&#x56FE;&#x5C42;_1" xmlns="http://www.w3.org/2000/svg" xmlns:xlink="http://www.w3.org/1999/xlink" x="0px"
	 y="0px" viewBox="0 0 145.382 146.75" style="enable-background:new 0 0 145.382 146.75;" xml:space="preserve">
<g id="&#x80CC;&#x666F;_xA0_&#x56FE;&#x50CF;_1_">
</g>
<g id="x_&#x62F7;&#x8D1D;_1_" style="enable-background:new    ;">
	<g id="x_&#x62F7;&#x8D1D;">
		<g>
			<path style="fill:#FF5656;" d="M7.295,28.439h62.731c3.64,0,6.592-3.373,6.592-7.497c0-4.124-2.951-7.497-6.592-7.497H7.295
				c-3.62,0-6.592,3.373-6.592,7.497C0.703,25.066,3.655,28.439,7.295,28.439z M7.295,82.573H49.13c3.62,0,6.592-3.342,6.571-7.497
				c0-4.124-2.951-7.497-6.592-7.497H7.295c-3.62,0-6.592,3.352-6.592,7.497C0.703,79.231,3.655,82.573,7.295,82.573z
				 M72.083,120.089H7.295c-3.62,0-6.592,3.342-6.592,7.497c0,4.155,2.951,7.497,6.592,7.497h64.808c3.62,0,6.571-3.342,6.571-7.497
				C78.675,123.431,75.724,120.089,72.083,120.089z M142.712,84.599c-2.571-2.972-6.88-2.972-9.471-0.041l-21.534,24.383V19.205
				c0-4.155-2.931-7.538-6.592-7.538c-3.651,0-6.592,3.373-6.592,7.538v90.148l-21.689-25.02c-2.571-2.972-6.746-2.982-9.317-0.062
				c-2.612,2.931-2.612,7.713-0.051,10.654l32.846,37.731c1.234,1.45,2.931,2.242,4.72,2.262c1.748,0,3.414-0.782,4.669-2.17
				l0.031-0.041c0,0,0.031,0,0.031-0.041l33.011-37.423C145.324,92.333,145.324,87.551,142.712,84.599z"/>
		</g>
	</g>
</g>
<g id="s_&#x62F7;&#x8D1D;_1_" style="enable-background:new    ;">
	<g id="s_&#x62F7;&#x8D1D;">
		<g>
			<path style="fill:#3874FB;" d="M426.144,125.981h4.066c0.354,0,0.641-0.328,0.641-0.729c0.002-0.404-0.287-0.729-0.639-0.729
				h-4.068c-0.354,0-0.641,0.325-0.641,0.729C425.503,125.655,425.792,125.981,426.144,125.981z M426.144,120.875h6.301
				c0.354,0,0.641-0.325,0.641-0.729s-0.287-0.729-0.639-0.729h-6.302c-0.354,0-0.641,0.325-0.641,0.729
				S425.792,120.875,426.144,120.875z M432.244,129.787h-6.1c-0.354,0-0.641,0.328-0.641,0.729c0,0.4,0.289,0.729,0.641,0.729h6.1
				c0.354,0,0.641-0.328,0.641-0.729C432.885,130.115,432.598,129.787,432.244,129.787z M439.319,123.289l-3.21-3.639
				c0-0.004-0.003-0.004-0.003-0.004l-0.003-0.004c-0.122-0.135-0.284-0.211-0.454-0.211c-0.174,0.002-0.339,0.08-0.459,0.22
				l-3.194,3.669c-0.249,0.287-0.249,0.752,0.005,1.036c0.25,0.285,0.656,0.283,0.906-0.006l2.109-2.433v8.766
				c0,0.404,0.285,0.733,0.641,0.733c0.355,0,0.641-0.328,0.641-0.733v-8.726l2.094,2.371c0.252,0.285,0.671,0.285,0.921-0.004
				C439.566,124.039,439.566,123.574,439.319,123.289z"/>
		</g>
	</g>
</g>
</svg>
