<?xml version="1.0" standalone="no"?><!DOCTYPE svg PUBLIC "-//W3C//DTD SVG 1.1//EN" "http://www.w3.org/Graphics/SVG/1.1/DTD/svg11.dtd"><svg class="icon" width="128px" height="128.00px" viewBox="0 0 1024 1024" version="1.1" xmlns="http://www.w3.org/2000/svg"><path d="M926.647887 126.197183h-288.450704c0-72.112676-57.690141-126.197183-126.197183-126.197183s-126.197183 57.690141-126.197183 126.197183h-288.450704c-18.028169 0-32.450704 14.422535-32.450705 32.450704v829.295775c0 18.028169 14.422535 32.450704 32.450705 32.450704h829.295774c18.028169 0 32.450704-14.422535 32.450705-32.450704v-829.295775c0-18.028169-14.422535-32.450704-32.450705-32.450704zM512 64.901408c36.056338 0 64.901408 28.84507 64.901408 64.901409s-28.84507 64.901408-64.901408 64.901408-64.901408-28.84507-64.901408-64.901408 28.84507-64.901408 64.901408-64.901409z m382.197183 894.197184H126.197183V191.098592H252.394366V288.450704c0 18.028169 14.422535 32.450704 32.450704 32.450704h447.098592c18.028169 0 32.450704-14.422535 32.450704-32.450704V191.098592h126.197183v768z"  /><path d="M782.422535 573.295775l-187.492958-28.845071-82.929577-169.464789-82.929577 169.464789-187.492958 28.845071 137.014084 133.40845-32.450704 187.492958 169.464789-86.535211 169.464789 86.535211-32.450705-187.492958 129.802817-133.40845z m-274.028169 187.492957v-302.873239l57.690141 118.985915 133.408451 18.028169-97.352113 93.746479 21.633803 133.408451-115.380282-61.295775z"  /></svg>