<?xml version="1.0" standalone="no"?><!DOCTYPE svg PUBLIC "-//W3C//DTD SVG 1.1//EN" "http://www.w3.org/Graphics/SVG/1.1/DTD/svg11.dtd"><svg t="1595928192789" class="icon" viewBox="0 0 1024 1024" version="1.1" xmlns="http://www.w3.org/2000/svg" p-id="1385" xmlns:xlink="http://www.w3.org/1999/xlink" width="32" height="32"><defs><style type="text/css"></style></defs><path d="M588.25 186.75v118h-153.5v-118h153.5m24-64h-201.5c-22.09 0-40 17.91-40 40v166c0 22.09 17.91 40 40 40h201.5c22.09 0 40-17.91 40-40v-166c0-22.09-17.91-40-40-40zM279.5 719.25v118h-118v-118h118m24-64h-166c-22.09 0-40 17.91-40 40v166c0 22.09 17.91 40 40 40h166c22.09 0 40-17.91 40-40v-166c0-22.09-17.91-40-40-40zM571 719.25v118H453v-118h118m24-64H429c-22.09 0-40 17.91-40 40v166c0 22.09 17.91 40 40 40h166c22.09 0 40-17.91 40-40v-166c0-22.09-17.91-40-40-40zM862.5 719.25v118h-118v-118h118m24-64h-166c-22.09 0-40 17.91-40 40v166c0 22.09 17.91 40 40 40h166c22.09 0 40-17.91 40-40v-166c0-22.09-17.91-40-40-40z" p-id="1386"></path><path d="M543.5 366.95h-64v101.3h-228c-34.79 0-63 28.21-63 63v153h64v-132c0-11.05 8.95-20 20-20h207v152h64v-152h208c11.05 0 20 8.95 20 20v132h64v-153c0-34.79-28.21-63-63-63h-229v-101.3z" p-id="1387"></path></svg>